<?xml version="1.0" standalone="no"?>
<!DOCTYPE svg PUBLIC "-//W3C//DTD SVG 20010904//EN"
 "http://www.w3.org/TR/2001/REC-SVG-20010904/DTD/svg10.dtd">
<svg version="1.0" xmlns="http://www.w3.org/2000/svg"
 width="1024.000000pt" height="1024.000000pt" viewBox="0 0 1024.000000 1024.000000"
 preserveAspectRatio="xMidYMid meet">
<metadata>
Created by potrace 1.14, written by Peter Selinger 2001-2017
</metadata>
<g transform="translate(0.000000,1024.000000) scale(0.100000,-0.100000)"
fill="#000000" stroke="none">
<path d="M0 5120 l0 -5120 5120 0 5120 0 0 5120 0 5120 -5120 0 -5120 0 0
-5120z m1984 875 c155 -27 276 -92 338 -180 67 -96 96 -276 63 -390 -19 -66
-71 -152 -115 -189 l-29 -24 49 -31 c66 -43 148 -135 177 -198 38 -82 50 -209
30 -307 -33 -162 -111 -263 -259 -335 -135 -67 -167 -71 -640 -71 l-418 0 0
870 0 870 359 0 c274 0 379 -4 445 -15z m2946 -14 c165 -42 303 -127 370 -228
54 -82 73 -165 68 -301 -3 -107 -6 -123 -35 -185 -46 -97 -125 -176 -251 -252
-1 -1 92 -167 208 -370 115 -202 210 -369 210 -371 0 -3 -80 -3 -177 -2 l-178
3 -180 327 -180 327 -157 1 -158 0 0 -330 0 -330 -165 0 -165 0 0 871 0 871
353 -5 c321 -4 360 -6 437 -26z m3610 -841 l0 -870 -177 0 -178 0 3 870 2 870
175 0 175 0 0 -870z m-5072 385 c147 -35 249 -116 321 -255 56 -107 81 -209
88 -357 l6 -123 -422 0 -422 0 6 -22 c16 -56 59 -129 92 -159 116 -101 287
-115 482 -37 41 16 77 25 82 21 4 -4 28 -57 53 -118 41 -102 44 -111 28 -123
-40 -31 -121 -66 -210 -88 -114 -29 -272 -32 -390 -8 -244 49 -428 228 -478
466 -24 111 -15 308 20 414 63 197 225 347 419 389 84 18 248 18 325 0z m2884
4 c187 -40 318 -172 388 -394 17 -53 24 -104 27 -207 l6 -138 -417 0 c-394 0
-416 -1 -416 -18 0 -36 53 -123 101 -166 69 -62 130 -81 254 -80 90 0 110 4
196 37 53 20 99 37 102 37 10 0 97 -232 91 -242 -14 -22 -173 -87 -253 -103
-128 -26 -318 -17 -430 20 -204 69 -352 229 -402 435 -20 80 -17 288 5 375 54
221 206 379 418 435 84 22 247 26 330 9z m1327 -23 c180 -50 294 -166 320
-326 6 -38 11 -241 11 -487 l0 -423 -165 0 -165 0 0 93 0 92 -28 -35 c-48 -62
-85 -91 -162 -128 -65 -32 -85 -37 -168 -40 -220 -10 -382 95 -428 278 -31
124 3 259 86 334 98 89 218 122 493 138 l197 12 0 63 c0 35 -6 79 -14 97 -31
75 -143 119 -247 97 -73 -16 -122 -50 -149 -105 l-22 -46 -150 0 -151 0 6 52
c21 176 186 314 422 352 55 8 259 -3 314 -18z m1371 -1066 l0 -170 -165 0
-165 0 0 170 0 170 165 0 165 0 0 -170z"/>
<path d="M1510 5514 l0 -216 183 4 c176 3 184 4 239 31 32 16 67 41 78 57 55
77 48 211 -14 274 -52 52 -121 66 -319 66 l-167 0 0 -216z"/>
<path d="M1510 4785 l0 -247 228 4 c211 3 231 5 277 26 63 29 102 66 126 117
38 82 16 205 -48 267 -69 68 -90 72 -350 76 l-233 4 0 -247z"/>
<path d="M4470 5465 l0 -265 143 0 c212 0 316 34 375 122 25 38 27 50 27 138
0 90 -2 100 -30 146 -23 36 -44 56 -85 76 -74 38 -138 48 -296 48 l-134 0 0
-265z"/>
<path d="M3222 5241 c-29 -10 -69 -34 -89 -52 -38 -37 -83 -120 -83 -156 l0
-23 256 0 256 0 -7 33 c-21 97 -91 176 -177 202 -66 19 -91 19 -156 -4z"/>
<path d="M6127 5246 c-26 -7 -64 -26 -85 -43 -40 -32 -86 -108 -97 -160 l-7
-33 256 0 256 0 0 23 c0 40 -58 143 -97 173 -36 27 -117 55 -158 53 -11 0 -42
-6 -68 -13z"/>
<path d="M7496 4799 c-153 -11 -192 -22 -238 -69 -33 -33 -38 -44 -38 -85 0
-58 22 -97 71 -124 116 -65 290 -17 352 98 22 40 27 62 27 120 l0 71 -27 -1
c-16 -1 -81 -6 -147 -10z"/>
</g>
</svg>
