<?xml version="1.0" encoding="UTF-8"?>
<svg width="80px" height="18px" viewBox="0 0 80 18" version="1.1" xmlns="http://www.w3.org/2000/svg" xmlns:xlink="http://www.w3.org/1999/xlink">
    <title>BeReal Logo</title>
    <g id="Shared-logotype-/-Current-Small" stroke="none" stroke-width="1" fill="none" fill-rule="evenodd">
        <path d="M21.6699655,4.75526415 C23.6470941,4.75526415 25.0993009,5.40884425 26.0274529,6.71600446 C26.9550268,8.02316466 27.4192474,9.5686724 27.4192474,11.3513734 L27.4192474,12.3901763 L18.9123914,12.3901763 C19.0684805,13.2212185 19.4497426,13.8837439 20.0570448,14.3771752 C20.664058,14.8706065 21.4618467,15.1170336 22.450411,15.1170336 C23.0227377,15.1170336 23.5386989,15.0437403 23.9982946,14.8965766 C24.4576012,14.7497014 24.9909056,14.537324 25.5982079,14.2603099 L26.5867722,16.7014965 C25.9968132,17.1516444 25.2814048,17.4805986 24.440547,17.6880706 C23.5991112,17.8958312 22.9097176,18 22.3723664,18 C20.187119,18 18.4655141,17.4023998 17.2084187,16.2080651 C15.9507452,15.0134419 15.3223421,13.4119542 15.3223421,11.4033136 C15.3223421,9.39525004 15.890333,7.78510568 17.0263147,6.57288051 C18.1620075,5.36123246 19.7098911,4.75526415 21.6699655,4.75526415 Z M51.119036,4.75526415 C53.0961646,4.75526415 54.5483714,5.40884425 55.4765234,6.71600446 C56.4040973,8.02316466 56.8680288,9.5686724 56.8680288,11.3513734 L56.8680288,12.3901763 L48.3614619,12.3901763 C48.517551,13.2212185 48.898524,13.8837439 49.5061153,14.3771752 C50.1128394,14.8706065 50.9106282,15.1170336 51.8994815,15.1170336 C52.4715192,15.1170336 52.9874804,15.0437403 53.447076,14.8965766 C53.9063827,14.7497014 54.4399762,14.537324 55.0472784,14.2603099 L56.0355536,16.7014965 C55.4458837,17.1516444 54.7304753,17.4805986 53.8896175,17.6880706 C53.0478926,17.8958312 52.3587881,18 51.8211479,18 C49.6361895,18 47.9145846,17.4023998 46.6572002,16.2080651 C45.3998157,15.0134419 44.7714126,13.4119542 44.7714126,11.4033136 C44.7714126,9.39525004 45.3391144,7.78510568 46.4750962,6.57288051 C47.611078,5.36123246 49.1586725,4.75526415 51.119036,4.75526415 Z M64.0369411,4.89437716 C67.281571,4.89437716 69.378657,6.56684969 69.378657,9.0925833 L69.378657,17.6880995 L65.9579932,17.6880995 L65.9579932,15.8171002 L65.8877531,15.8171002 C65.1729229,17.1034843 63.837783,17.8869148 62.18584,17.8869148 C59.6673134,17.8869148 57.9688328,16.3082231 57.9688328,14.0978815 L57.9688328,14.074797 C57.9688328,11.7943363 59.7375535,10.4609174 62.8538435,10.2621021 L65.9579932,10.0751176 L65.9579932,9.30351798 C65.9579932,8.19228753 65.2316008,7.50234933 63.8961718,7.50234933 C62.6194208,7.50234933 61.8462017,8.09879528 61.6823081,8.90559879 L61.6586057,9.01092186 L58.5310426,9.01092186 L58.5428938,8.87068348 C58.7302007,6.55501888 60.721493,4.89437716 64.0369411,4.89437716 Z M80,14.2255388 L80,17.6882149 L76.5313533,17.6882149 L76.5313533,14.2255388 L80,14.2255388 Z M6.60777194,0.0284516548 C8.32475205,0.0284516548 9.72059328,0.405017674 10.7961628,1.15814971 C11.8711542,1.91157031 12.4090835,3.17977541 12.4090835,4.96276501 C12.4090835,5.62096201 12.2570412,6.21394529 11.9538236,6.74171483 C11.6503171,7.27006148 11.2554694,7.72453771 10.770148,8.10514352 C11.5676476,8.52066464 12.2226438,9.08363805 12.7342691,9.79319809 C13.2456055,10.5033352 13.5017072,11.4033424 13.5017072,12.4940854 C13.5017072,14.1218317 12.9334273,15.3943651 11.7977345,16.3119743 C10.6614637,17.2295834 9.14826658,17.6880995 7.25814319,17.6880995 L0,17.6880995 L0,0.0284516548 L6.60777194,0.0284516548 Z M35.6139252,0.0285382217 C37.5390241,0.0285382217 39.1863422,0.470029417 40.5564576,1.35301181 C41.9268621,2.2359942 42.6122089,3.60375123 42.6122089,5.45628291 C42.6122089,6.54702587 42.3298033,7.48627674 41.7664372,8.27403554 C41.2024931,9.06179434 40.4787021,9.67237955 39.5941972,10.1049255 L43.9389663,17.688186 L40.348917,17.688186 L36.6024895,10.9359677 C36.4114249,10.9532811 36.2122667,10.9662662 36.0041479,10.9749229 C35.7960291,10.9838681 35.5879103,10.9879079 35.3797915,10.9879079 L33.4286778,10.9879079 L33.4286778,17.688186 L30.0727621,17.688186 L30.0727621,0.0285382217 L35.6139252,0.0285382217 Z M74.8262244,0 L74.8262244,17.6882149 L71.2408,17.6882149 L71.2408,0 L74.8262244,0 Z M65.9579932,12.2037977 L63.3692266,12.3671206 C62.0453598,12.4490706 61.3542319,13.0103127 61.3542319,13.8993548 L61.3542319,13.9227278 C61.3542319,14.8463967 62.1155999,15.3960965 63.2986975,15.3960965 C64.8335736,15.3960965 65.9579932,14.4138507 65.9579932,13.1040935 L65.9579932,12.2037977 Z M7.23212834,9.94901851 L3.35591567,9.94901851 L3.35591567,14.9093019 L6.99799469,14.9093019 C7.89955377,14.9093019 8.62392282,14.7018299 9.17023468,14.2860202 C9.71654653,13.8704991 9.98970246,13.2821328 9.98970246,12.5200555 C9.98970246,11.6890132 9.73793652,11.0527465 9.2352718,10.6112553 C8.73202898,10.1700527 8.06460354,9.94901851 7.23212834,9.94901851 Z M21.5919209,7.6376534 C20.8979026,7.6376534 20.3171933,7.85003086 19.848926,8.27392012 C19.3806587,8.69838649 19.076863,9.31733983 18.9384062,10.1307801 L24.2194208,10.1307801 C24.0456994,9.28300163 23.7335212,8.65510304 23.2828862,8.2482386 C22.8316731,7.84137417 22.268307,7.6376534 21.5919209,7.6376534 Z M51.0407024,7.6376534 C50.3469731,7.6376534 49.7659747,7.85003086 49.2979965,8.27392012 C48.8297292,8.69838649 48.5259336,9.31733983 48.3871877,10.1307801 L53.6682023,10.1307801 C53.4947699,9.28300163 53.1825917,8.65510304 52.7319567,8.2482386 C52.2804545,7.84137417 51.7170885,7.6376534 51.0407024,7.6376534 Z M35.5098658,2.83330581 L33.4286778,2.83330581 L33.4286778,8.23508044 L35.5618955,8.23508044 C36.567514,8.23508044 37.3999892,8.03193677 38.0593211,7.62478378 C38.718364,7.2182079 39.0478854,6.54702587 39.0478854,5.61210334 C39.0478854,4.62524066 38.7357072,3.91539208 38.1113508,3.48255757 C37.4869944,3.05001162 36.6195437,2.83330581 35.5098658,2.83330581 Z M6.11348978,2.83321925 L3.35591567,2.83321925 L3.35591567,7.22216113 L5.85334128,7.22216113 C6.78987589,7.22216113 7.52233845,7.04498754 8.05159612,6.68977469 C8.58056474,6.33513895 8.84504905,5.77678244 8.84504905,5.01470515 C8.84504905,4.18395146 8.60195473,3.61260991 8.11663324,3.30068051 C7.63073365,2.98903967 6.96301917,2.83321925 6.11348978,2.83321925 Z" id="Combined-Shape" fill="#FFFFFF"></path>
    </g>
</svg>